<?xml version="1.0" standalone="no"?>
<!DOCTYPE svg PUBLIC "-//W3C//DTD SVG 20010904//EN"
 "http://www.w3.org/TR/2001/REC-SVG-20010904/DTD/svg10.dtd">
<svg version="1.0" xmlns="http://www.w3.org/2000/svg"
 width="180.000000pt" height="180.000000pt" viewBox="0 0 180.000000 180.000000"
 preserveAspectRatio="xMidYMid meet">
<metadata>
Created by potrace 1.11, written by Peter Selinger 2001-2013
</metadata>
<g transform="translate(0.000000,180.000000) scale(0.100000,-0.100000)"
fill="#000000" stroke="none">
<path d="M80 1778 c-81 -40 -75 23 -76 -853 -1 -429 1 -795 3 -813 8 -48 62
-98 115 -105 24 -3 383 -6 798 -6 709 1 758 2 797 19 29 13 47 30 61 57 19 37
19 68 19 820 0 865 2 834 -63 878 -28 19 -52 20 -822 21 -763 1 -794 0 -832
-18z"/>
</g>
</svg>
